<svg width="24" height="24" viewBox="0 0 24 24" fill="none" xmlns="http://www.w3.org/2000/svg">
<path d="M4.19961 18L14.9996 7.19998L17.3996 9.59998L6.59961 20.4L3.59961 21L4.19961 18Z" fill="white"/>
<path d="M19.7996 7.19998L17.3996 4.79998L18.5996 3.59998L20.9996 5.99998L19.7996 7.19998Z" fill="white"/>
<path fill-rule="evenodd" clip-rule="evenodd" d="M18.1757 3.17574C18.4101 2.94142 18.79 2.94142 19.0243 3.17574L21.4243 5.57574C21.6586 5.81005 21.6586 6.18995 21.4243 6.42426L20.2243 7.62426C19.99 7.85858 19.6101 7.85858 19.3757 7.62426L16.9757 5.22426C16.7414 4.98995 16.7414 4.61005 16.9757 4.37574L18.1757 3.17574ZM18.2485 4.8L19.8 6.35147L20.1515 6L18.6 4.44853L18.2485 4.8ZM14.5757 6.77574C14.8101 6.54142 15.19 6.54142 15.4243 6.77574L17.8243 9.17574C18.0586 9.41005 18.0586 9.78995 17.8243 10.0243L7.02427 20.8243C6.94051 20.908 6.83383 20.9651 6.71768 20.9883L3.71768 21.5883C3.52096 21.6277 3.3176 21.5661 3.17575 21.4243C3.03389 21.2824 2.97232 21.079 3.01166 20.8823L3.61166 17.8823C3.63489 17.7662 3.69199 17.6595 3.77575 17.5757L14.5757 6.77574ZM4.75273 18.2958L4.36486 20.2351L6.3042 19.8473L16.5515 9.6L15 8.04853L4.75273 18.2958Z" fill="white"/>
</svg>
