<?xml version="1.0" standalone="no"?>
<!DOCTYPE svg PUBLIC "-//W3C//DTD SVG 20010904//EN"
 "http://www.w3.org/TR/2001/REC-SVG-20010904/DTD/svg10.dtd">
<svg version="1.0" xmlns="http://www.w3.org/2000/svg"
 width="700.000000pt" height="700.000000pt" viewBox="0 0 700.000000 700.000000"
 preserveAspectRatio="xMidYMid meet">
<metadata>
Created by potrace 1.14, written by Peter Selinger 2001-2017
</metadata>
<g transform="translate(0.000000,700.000000) scale(0.100000,-0.100000)"
fill="#000000" stroke="none">
<path d="M3050 6419 c-195 -26 -212 -29 -245 -34 -85 -15 -328 -106 -515 -193
-36 -17 -69 -30 -74 -30 -5 0 -12 -4 -15 -9 -9 -12 -141 -74 -140 -65 1 4 1
39 0 79 -1 58 -4 71 -15 67 -18 -7 -29 -45 -32 -114 -1 -30 -3 -57 -3 -60 -1
-3 -21 -16 -46 -29 -33 -18 -44 -29 -40 -41 4 -12 -7 -25 -35 -44 -40 -26 -40
-27 -21 -47 16 -17 23 -19 40 -10 11 7 20 15 20 19 -4 27 16 43 62 47 17 2 16
16 3 -320 -3 -99 -7 -224 -8 -277 0 -54 -3 -98 -6 -98 -8 0 -12 -984 -5 -1190
6 -194 6 -314 0 -605 -4 -154 -9 -507 -11 -785 -5 -627 -11 -770 -30 -770 -8
0 -14 -7 -14 -16 0 -12 3 -14 13 -6 9 8 13 0 15 -34 2 -38 0 -44 -16 -44 -24
0 -53 -31 -35 -37 31 -11 50 -39 48 -73 -1 -27 -6 -35 -21 -36 -10 -1 -22 -3
-26 -4 -5 -1 -12 -3 -17 -4 -38 -5 -15 -41 31 -50 17 -3 28 -9 25 -13 -4 -3
-2 -12 4 -20 22 -25 -9 -14 -42 17 -35 31 -56 31 -37 0 10 -15 9 -23 -6 -38
-17 -20 -31 -22 -51 -10 -6 4 -17 3 -24 -2 -17 -10 17 -22 72 -25 31 -2 45
-11 80 -50 23 -26 46 -54 50 -62 5 -8 21 -27 36 -41 14 -15 51 -56 81 -92 30
-36 57 -67 60 -70 16 -16 64 -86 62 -90 -4 -8 -45 1 -59 12 -7 6 -10 14 -7 19
3 5 -2 9 -10 9 -8 0 -18 -5 -21 -11 -8 -12 19 -45 38 -46 74 -2 141 -31 150
-63 2 -8 17 -22 33 -30 16 -8 31 -17 34 -20 3 -3 19 -13 37 -23 48 -26 51 -3
6 40 l-38 36 48 -32 48 -33 -6 36 c-7 33 -5 35 15 31 13 -2 48 -7 79 -11 31
-3 67 -8 81 -9 33 -5 111 -13 185 -21 33 -3 195 -7 360 -9 165 -2 303 -4 307
-4 12 -2 25 -56 23 -98 -2 -24 1 -43 6 -43 5 0 9 9 9 20 0 30 20 24 33 -10 13
-34 19 -36 36 -16 9 11 9 20 2 34 -6 11 -7 22 -4 26 3 3 1 6 -5 6 -23 0 -14
77 12 105 14 15 26 31 28 37 2 5 16 11 31 11 15 1 27 7 27 14 0 7 11 18 25 25
14 8 21 18 17 24 -5 8 -28 4 -77 -16 -38 -15 -73 -26 -77 -24 -3 2 -4 50 -2
107 3 56 6 171 8 254 1 84 5 156 9 159 3 3 2 16 -3 29 -5 13 -6 25 -3 29 6 6
6 277 0 426 -2 52 0 100 5 107 6 7 5 19 -2 32 -6 11 -13 67 -15 123 -3 57 -7
157 -10 223 -6 126 -9 165 -18 230 -3 22 -9 67 -12 100 -8 75 -14 116 -21 127
-3 4 -1 8 5 8 5 0 13 -4 16 -10 8 -13 25 -13 25 0 0 6 -9 20 -20 32 -26 28
-25 38 3 40 36 2 41 3 56 12 10 7 12 6 6 -4 -6 -9 -4 -11 5 -5 8 5 39 10 70
11 32 1 70 4 86 8 16 3 65 8 109 12 44 3 94 8 110 11 17 2 50 7 75 9 25 2 73
7 108 10 34 4 62 10 62 15 0 4 9 6 20 4 11 -2 18 0 15 6 -6 9 -87 5 -103 -5
-5 -3 -14 -1 -21 3 -8 5 1 10 26 14 21 3 49 8 63 11 14 4 43 8 65 11 22 3 45
11 50 18 9 11 58 37 70 37 2 0 2 -7 -1 -15 -5 -12 -2 -12 25 1 17 8 33 20 36
25 4 5 11 7 16 4 5 -4 9 -1 9 4 0 6 4 11 10 11 5 0 63 32 129 70 66 38 125 70
130 70 5 0 11 3 13 8 2 4 23 18 48 31 25 13 61 39 80 57 19 18 63 55 96 81 86
67 159 135 172 159 5 10 8 30 6 44 -3 17 3 33 19 50 31 34 39 58 22 67 -11 7
0 34 56 134 45 82 67 132 63 143 -4 9 -13 15 -20 12 -18 -7 -18 -3 6 47 12 23
25 76 31 117 6 41 13 78 15 82 13 20 25 308 14 308 -3 0 -5 19 -4 42 2 53 -13
98 -33 98 -8 0 -13 6 -10 13 5 14 -28 65 -37 56 -3 -3 3 -15 14 -27 12 -12 16
-22 10 -22 -7 0 -8 -6 -2 -16 11 -19 4 -54 -9 -54 -5 0 -9 3 -10 8 -9 92 -176
489 -250 594 -11 14 -19 28 -19 31 0 8 -68 107 -118 172 -26 33 -59 78 -74
100 -114 166 -415 394 -654 494 -44 19 -93 40 -111 47 -17 8 -37 14 -45 14 -8
0 -18 3 -22 7 -3 4 -12 8 -19 9 -7 1 -57 14 -112 27 -190 49 -276 59 -525 62
-133 1 -223 -3 -320 -16z m515 -43 c59 -4 103 -12 107 -19 6 -9 8 -9 8 1 0 7
5 10 10 7 13 -8 64 -16 107 -17 18 -1 30 -5 27 -10 -3 -4 6 -8 20 -8 32 0 136
-32 136 -42 0 -4 -8 -5 -17 -2 -15 5 -15 4 -4 -4 10 -7 21 -7 33 -1 12 7 18 6
18 -2 0 -6 6 -9 14 -6 8 3 16 2 18 -3 2 -5 13 -11 25 -13 11 -1 28 -9 36 -16
9 -6 26 -13 40 -14 13 -1 35 -10 48 -20 32 -23 100 -57 115 -57 7 0 20 -8 30
-17 10 -10 22 -18 28 -19 24 -1 56 -16 51 -23 -2 -5 21 -26 52 -47 76 -53 113
-75 113 -68 0 5 85 -62 118 -93 7 -7 10 -17 7 -23 -3 -6 -17 3 -32 20 -13 16
-29 30 -34 30 -5 0 12 -21 37 -46 25 -26 48 -43 52 -40 3 4 0 11 -8 16 -8 5
-12 12 -8 15 7 8 58 -39 58 -54 0 -6 6 -11 13 -12 10 0 10 -2 0 -6 -7 -2 -13
-12 -13 -21 0 -14 2 -15 9 -3 8 12 12 13 26 1 9 -7 14 -19 11 -26 -3 -7 -1
-16 5 -19 5 -4 7 -9 5 -13 -2 -4 2 -13 10 -20 19 -17 18 -2 -2 28 -8 14 -2 9
15 -10 17 -19 29 -41 26 -48 -3 -8 0 -10 7 -6 7 5 9 2 5 -9 -4 -11 -2 -14 7
-11 9 3 14 -3 14 -19 0 -14 11 -40 25 -59 27 -35 75 -133 82 -165 1 -11 11
-37 20 -59 9 -21 18 -48 20 -59 2 -11 16 -65 30 -120 29 -113 42 -304 22 -340
-6 -11 -10 -26 -8 -33 1 -8 -4 -21 -11 -30 -11 -13 -11 -15 2 -8 11 7 11 4 -2
-9 -12 -13 -14 -24 -7 -42 10 -28 7 -49 -28 -155 -14 -43 -30 -75 -35 -72 -5
4 -9 -2 -7 -12 1 -11 -2 -28 -6 -39 -18 -43 -95 -154 -170 -245 -99 -118 -96
-116 -125 -125 -30 -10 -102 -54 -112 -69 -4 -6 -8 -7 -8 -2 0 5 -10 0 -23
-12 -13 -12 -27 -19 -30 -15 -4 3 -7 2 -7 -3 0 -6 -22 -21 -50 -35 -27 -13
-50 -26 -50 -29 0 -3 -49 -30 -109 -60 -61 -29 -108 -57 -105 -62 3 -4 -2 -5
-11 -2 -8 4 -21 2 -28 -4 -11 -9 -81 -35 -102 -38 -36 -6 -37 -6 -74 -22 -19
-7 -42 -15 -50 -17 -9 -2 -45 -10 -81 -19 -65 -15 -122 -25 -170 -31 -155 -18
-405 -37 -478 -37 l-54 0 6 -96 c7 -120 8 -165 6 -174 -6 -21 -5 -34 5 -40 7
-5 7 -11 0 -15 -14 -11 -18 -63 -5 -63 6 0 9 4 5 9 -3 5 -2 12 2 14 5 3 8 -17
9 -44 0 -27 -3 -49 -8 -49 -5 0 -6 5 -2 12 4 7 3 8 -5 4 -9 -6 -9 -11 0 -22 6
-7 9 -20 6 -29 -4 -8 2 -19 11 -25 15 -10 14 -11 -5 -7 -18 4 -21 2 -14 -11 4
-10 7 -34 6 -55 -1 -21 1 -40 5 -42 4 -2 6 11 5 31 -1 19 2 37 7 40 4 3 9 -10
9 -28 5 -107 3 -142 -7 -145 -6 -2 -9 14 -8 42 1 25 -1 45 -5 45 -3 0 -6 -29
-6 -65 0 -51 2 -62 11 -50 10 13 13 9 20 -22 4 -21 8 -44 7 -50 0 -7 2 -13 6
-13 3 0 7 -15 8 -33 2 -17 5 -41 7 -52 2 -11 -2 -26 -8 -34 -8 -12 -8 -13 2
-7 11 6 12 -47 10 -287 -2 -162 -6 -293 -9 -291 -4 2 -6 -7 -6 -21 0 -14 3
-22 7 -20 4 3 4 -10 0 -29 -4 -19 -3 -41 3 -51 5 -10 11 -54 13 -99 6 -137 14
-250 19 -271 3 -15 -1 -21 -15 -21 -13 0 -24 14 -36 43 -12 29 -24 43 -37 43
-15 0 -18 -5 -13 -25 5 -19 2 -25 -11 -26 -10 0 -49 -3 -88 -5 -141 -8 -441
-10 -461 -3 -13 4 -26 3 -33 -4 -8 -8 -11 -8 -11 2 0 7 -4 9 -10 6 -5 -3 -10
-2 -10 2 0 5 105 9 233 10 411 2 391 1 378 17 -10 12 -33 13 -109 9 -151 -8
-525 -1 -597 11 -11 2 -26 -2 -34 -8 -11 -8 -13 -8 -8 0 4 8 -12 12 -51 13
-31 1 -71 3 -87 4 -17 0 -37 -3 -44 -8 -10 -6 -12 -4 -6 6 7 11 5 11 -10 -1
-10 -8 -16 -10 -12 -4 4 8 -7 12 -36 13 -153 6 -166 8 -153 30 4 5 17 8 31 5
13 -2 67 -6 118 -8 52 -2 100 -6 106 -10 6 -4 11 -3 11 3 0 7 8 7 24 1 24 -9
36 -5 36 12 0 4 -10 6 -22 4 -13 -2 -29 1 -35 6 -7 6 -13 7 -13 2 0 -5 -11 -9
-25 -9 -14 0 -25 2 -25 5 0 3 -25 5 -56 5 -31 0 -58 3 -61 8 -2 4 -8 5 -11 3
-4 -2 -23 -1 -42 4 -27 7 -15 8 50 7 47 0 91 2 98 7 6 4 12 3 12 -1 0 -5 10
-9 21 -10 20 -2 21 -1 3 12 -17 12 -16 13 9 8 15 -3 25 -9 22 -12 -2 -4 2 -8
10 -8 8 0 12 4 9 9 -3 4 0 8 5 8 6 0 11 -4 11 -10 0 -19 50 -11 51 8 1 16 2
16 6 0 5 -21 -9 -20 316 -19 125 0 227 -3 227 -7 0 -4 -44 -7 -98 -7 -53 0
-100 -4 -104 -10 -5 -6 -8 -6 -8 1 0 8 -11 10 -32 5 -18 -4 -95 -6 -170 -6
-89 0 -138 -4 -138 -10 0 -7 79 -10 230 -10 126 0 230 -4 230 -8 0 -5 6 -5 13
0 6 4 53 9 102 9 50 1 90 3 90 4 0 1 25 4 55 6 30 2 66 6 80 8 14 2 31 4 38 5
6 0 12 5 12 10 0 5 -30 9 -67 8 -38 0 -79 3 -93 6 -13 4 -39 8 -57 9 -19 1
-32 7 -30 13 3 5 -6 11 -20 11 -20 2 -22 0 -8 -10 13 -9 12 -11 -9 -12 -14 -1
-24 3 -23 8 1 6 -5 13 -13 15 -13 4 -13 3 0 -6 18 -13 18 -13 -47 -15 -28 -1
-49 2 -47 6 2 3 0 9 -6 13 -5 3 -10 -2 -10 -12 0 -15 -2 -16 -10 -3 -7 11 -10
11 -10 2 0 -8 -5 -10 -12 -6 -14 9 -58 12 -53 4 2 -3 -10 -5 -26 -5 -16 0 -29
2 -29 5 0 3 -13 5 -30 6 -16 1 -27 -3 -23 -8 3 -6 -4 -5 -15 1 -24 13 -35 14
-29 4 3 -5 -5 -8 -18 -8 -13 0 -21 3 -19 7 3 4 -5 6 -16 5 -11 -1 -20 -4 -20
-7 0 -9 -32 -6 -48 4 -7 4 -19 2 -28 -5 -12 -9 -13 -9 -9 2 4 11 -11 15 -72
17 -43 1 -94 5 -113 8 -19 3 -51 7 -70 9 -43 5 -91 14 -102 21 -13 8 -9 54 5
55 6 0 195 1 419 2 225 1 408 5 408 9 0 3 -6 8 -12 11 -7 3 -3 4 9 4 12 -1 20
-4 18 -7 -2 -3 41 -6 95 -5 69 1 103 5 116 16 10 7 15 9 11 2 -6 -9 3 -10 30
-6 21 3 42 9 47 13 11 11 -3 32 -16 24 -6 -4 -53 -7 -105 -8 -70 -1 -97 -6
-103 -16 -6 -8 -10 -10 -10 -5 0 6 -25 10 -55 10 -42 0 -55 -4 -55 -15 0 -12
-2 -12 -9 -1 -6 9 -11 10 -15 2 -4 -6 -12 -8 -18 -5 -5 4 -54 5 -107 4 -53 -1
-190 -4 -306 -6 -115 -3 -241 -5 -280 -7 -57 -2 -70 1 -73 14 -2 12 5 15 32
14 19 -2 39 -5 44 -9 5 -3 12 0 15 7 4 10 -6 13 -39 12 -39 -1 -45 2 -51 22
-3 13 -4 26 -2 28 3 2 80 5 172 7 92 2 167 5 167 8 0 3 -75 5 -167 5 l-168 0
-1 135 c0 74 3 155 8 180 4 25 9 68 11 96 2 28 7 57 11 63 4 6 2 11 -4 11 -7
0 -8 5 -3 13 4 6 9 26 9 42 1 17 3 32 4 35 6 13 21 229 24 362 2 64 7 122 11
129 5 7 4 10 -1 6 -9 -5 -9 76 1 101 2 6 0 12 -4 12 -5 0 -5 16 -1 34 4 19 5
37 2 40 -3 3 -6 25 -7 48 -2 24 -3 47 -4 52 -1 4 -9 6 -19 4 -18 -5 -19 12
-19 401 0 223 4 416 8 429 5 14 5 22 -2 22 -6 0 -7 6 -3 12 9 14 12 858 4 858
-8 0 -5 264 3 277 4 6 3 14 -1 17 -5 3 -7 22 -5 43 6 58 11 151 12 223 1 46 4
61 11 50 9 -13 10 -13 11 0 1 8 1 24 0 35 -8 67 0 339 10 351 20 24 194 119
212 116 4 -1 7 2 7 6 0 5 27 20 60 33 33 13 60 26 60 30 0 3 6 6 13 6 6 0 54
17 105 37 51 20 103 38 115 41 61 13 113 31 119 40 4 5 8 7 8 3 0 -3 24 0 53
7 60 16 96 23 152 31 22 3 45 7 51 9 6 2 17 -1 25 -5 7 -5 18 -5 24 0 6 5 53
10 105 11 52 2 108 5 124 9 34 6 113 5 251 -4z m1624 -1331 c11 -19 16 -35 11
-35 -5 0 -12 9 -15 20 -3 11 -11 20 -17 20 -6 0 -8 3 -5 7 4 3 1 13 -6 21 -8
10 -8 13 -1 9 7 -4 21 -23 33 -42z m191 -185 c0 -5 -2 -10 -4 -10 -3 0 -8 5
-11 10 -3 6 -1 10 4 10 6 0 11 -4 11 -10z m5 -89 c3 -5 2 -12 -3 -15 -5 -3 -9
1 -9 9 0 17 3 19 12 6z m-230 -272 c20 -34 34 -63 32 -65 -5 -6 -57 73 -57 86
0 5 -4 10 -10 10 -5 0 -10 7 -10 15 0 25 8 17 45 -46z m-25 -29 c16 -14 39
-60 31 -60 -6 0 -16 10 -22 22 -7 13 -18 29 -26 36 -7 7 -13 23 -12 35 0 21 1
21 12 -3 6 -14 14 -27 17 -30z m93 10 c9 -11 13 -20 7 -20 -5 0 -14 9 -20 20
-6 11 -9 20 -8 20 2 0 11 -9 21 -20z m52 1 c3 -5 1 -12 -4 -15 -5 -3 -11 1
-15 9 -6 16 9 21 19 6z m-167 -56 c6 -14 10 -25 8 -25 -2 0 -11 11 -20 25 -9
14 -13 25 -8 25 5 0 14 -11 20 -25z m2 -54 c22 -33 40 -65 40 -70 0 -6 5 -11
11 -11 5 0 7 -4 4 -10 -3 -5 -1 -10 4 -10 6 0 11 -6 11 -12 0 -14 -69 61 -70
75 0 4 -11 20 -25 35 -22 23 -34 62 -20 62 2 0 22 -27 45 -59z m141 27 c8 -15
8 -18 0 -14 -6 4 -16 16 -22 28 -8 15 -8 18 0 14 6 -4 16 -16 22 -28z m-67
-14 c3 -8 2 -12 -4 -9 -6 3 -10 10 -10 16 0 14 7 11 14 -7z m-40 -10 c9 -24 2
-26 -12 -4 -7 11 -8 20 -3 20 5 0 12 -7 15 -16z m-94 -46 c6 -13 16 -32 22
-43 90 -140 89 -160 0 -36 -42 58 -49 74 -43 96 3 11 12 4 21 -17z m71 -55
c18 -25 27 -43 21 -39 -6 3 -25 27 -42 52 -16 25 -26 43 -20 39 5 -3 24 -27
41 -52z m-90 -10 c21 -43 22 -50 4 -28 -25 30 -37 55 -27 55 5 0 15 -12 23
-27z m218 14 c6 -8 8 -17 4 -20 -11 -12 -21 -7 -26 13 -6 23 5 26 22 7z m-241
-52 c12 -19 22 -39 22 -45 0 -5 4 -10 8 -10 8 0 24 -26 41 -65 4 -10 -29 24
-82 85 -16 17 -31 29 -34 27 -6 -7 25 -75 46 -102 15 -18 15 -19 0 -7 -9 7
-29 30 -43 51 -26 38 -27 38 -9 69 10 18 20 32 23 32 3 0 15 -16 28 -35z m332
-20 c0 -12 -50 -104 -59 -110 -17 -10 9 76 31 102 10 13 28 18 28 8z m-125
-26 c11 -17 -1 -21 -15 -4 -8 9 -8 15 -2 15 6 0 14 -5 17 -11z m-267 -46 c12
-21 31 -54 43 -73 l22 -35 -29 30 c-35 35 -84 99 -84 108 0 21 29 2 48 -30z
m-15 -76 c39 -59 41 -66 15 -36 -44 47 -78 92 -78 101 0 21 19 1 63 -65z m250
10 c-3 -5 -14 5 -24 22 -26 43 -24 50 5 16 14 -16 22 -33 19 -38z m-99 -3 c37
-39 56 -66 56 -81 0 -15 -4 -13 -22 7 -13 14 -32 42 -43 63 -11 20 -23 37 -28
37 -4 0 -5 5 -1 11 4 8 10 5 17 -7 6 -11 15 -24 21 -30z m80 -36 c-4 -7 -10
-4 -17 8 -5 11 -19 33 -30 49 -16 26 -14 25 17 -8 20 -21 34 -43 30 -49z
m-284 20 c18 -29 35 -55 39 -58 6 -5 11 -13 57 -96 32 -57 30 -60 -11 -20 -19
19 -35 39 -35 45 0 6 -3 11 -7 11 -5 0 -30 27 -57 61 -45 56 -48 62 -36 85 7
13 14 24 16 24 1 0 17 -24 34 -52z m203 -59 c15 -21 27 -44 27 -49 0 -23 -18
-6 -47 44 -35 62 -22 65 20 5z m-253 -16 c0 -7 7 -16 15 -19 8 -4 15 -10 15
-15 0 -5 16 -32 35 -59 19 -27 35 -54 35 -60 0 -5 4 -10 9 -10 5 0 11 -7 15
-15 10 -28 -3 -15 -61 58 -32 39 -60 74 -63 77 -22 22 -50 72 -44 81 8 13 44
-18 44 -38z m237 -41 c14 -15 17 -35 6 -45 -8 -8 -72 95 -66 106 3 4 14 -5 26
-20 12 -15 27 -34 34 -41z m-279 23 c12 -19 22 -39 22 -44 0 -5 4 -11 8 -13
11 -4 72 -97 72 -109 0 -5 5 -9 10 -9 6 0 10 5 10 12 0 6 14 -1 30 -17 29 -27
38 -54 23 -68 -3 -4 -15 12 -25 35 -13 30 -21 39 -27 29 -6 -10 -14 -7 -32 12
-28 28 -96 107 -107 122 -4 6 -15 21 -26 33 -15 18 -16 24 -6 37 18 21 22 19
48 -20z m248 -69 c19 -22 22 -31 13 -42 -10 -12 -16 -9 -34 18 -12 18 -25 43
-29 55 -4 11 -13 27 -21 33 -8 7 -15 18 -15 24 0 10 11 -1 86 -88z m-326 46
c0 -5 8 -17 18 -28 10 -10 21 -27 25 -37 4 -11 12 -15 18 -11 8 4 9 3 5 -5 -4
-6 2 -24 13 -40 12 -16 21 -33 21 -37 0 -4 6 -15 13 -23 19 -23 60 -91 54 -91
-3 0 -19 14 -37 30 -18 17 -29 30 -25 30 5 0 -1 8 -12 18 -11 9 -28 31 -39 47
-10 17 -27 36 -36 43 -10 7 -18 20 -18 28 0 8 -3 14 -8 14 -4 0 -13 9 -20 21
-10 16 -10 24 -1 35 13 15 29 19 29 6z m249 -75 c51 -56 60 -71 50 -83 -9 -11
-15 -12 -25 -3 -8 6 -14 15 -14 19 0 4 -18 35 -40 68 -22 33 -40 63 -40 67 0
5 1 6 3 4 2 -2 32 -35 66 -72z m249 33 c-7 -10 -14 -17 -17 -15 -4 4 18 35 25
35 2 0 -1 -9 -8 -20z m-509 -60 c28 -38 51 -74 51 -80 0 -5 4 -10 8 -10 5 0
14 -10 20 -22 6 -13 21 -39 33 -58 13 -19 20 -33 16 -30 -15 12 -154 150 -151
150 2 0 -15 19 -37 42 l-40 42 23 18 c13 10 24 18 25 18 1 0 24 -31 52 -70z
m-224 24 c-9 -9 -19 -13 -23 -10 -3 4 0 11 8 16 24 15 33 11 15 -6z m145 -57
c19 -28 38 -56 43 -62 4 -5 30 -44 59 -85 45 -67 47 -72 18 -45 -19 17 -45 43
-59 59 -14 17 -54 59 -88 95 -55 59 -60 67 -46 79 27 20 36 14 73 -41z m294
-77 c24 -25 30 -38 22 -46 -29 -26 -36 -24 -53 16 -10 22 -21 40 -25 40 -5 0
-8 7 -8 15 0 8 -4 15 -10 15 -5 0 -10 6 -10 13 0 6 -9 23 -20 37 -37 48 -20
44 25 -5 25 -28 60 -66 79 -85z m-474 115 c0 -7 -122 -66 -127 -62 -4 4 108
66 120 67 4 0 7 -2 7 -5z m121 -72 c18 -32 36 -59 41 -61 4 -2 8 -10 8 -18 0
-8 3 -14 8 -14 4 0 16 -18 26 -40 11 -22 23 -40 27 -40 11 0 19 -29 9 -35 -5
-3 -12 0 -16 6 -5 8 -3 9 7 4 8 -5 -8 14 -36 42 -165 167 -159 158 -140 187
10 14 21 26 25 26 5 0 23 -26 41 -57z m619 39 c0 -17 -81 -95 -90 -86 -11 11
20 50 60 77 28 19 30 20 30 9z m-724 -56 c8 -8 14 -17 14 -21 0 -3 5 -11 10
-18 6 -7 39 -52 74 -100 35 -49 67 -84 70 -78 4 5 -2 14 -11 20 -10 6 -15 11
-11 11 4 0 1 8 -6 18 -44 53 -85 112 -78 112 4 0 51 -43 105 -95 l98 -94 -27
-18 c-26 -17 -27 -17 -42 5 -8 12 -20 22 -27 22 -12 0 -49 36 -174 169 -28 30
-55 51 -58 47 -8 -8 47 -116 58 -116 4 0 10 -8 13 -17 4 -10 20 -33 36 -52 17
-18 30 -36 30 -38 0 -13 -28 10 -114 96 -112 109 -135 106 -64 -9 77 -126 88
-145 88 -154 0 -5 -10 4 -22 20 -52 67 -182 194 -191 185 -11 -11 9 -51 25
-51 6 0 8 -3 5 -7 -4 -3 5 -21 19 -40 14 -18 22 -33 18 -33 -3 0 -1 -8 7 -17
7 -10 -26 20 -72 67 -74 74 -83 87 -70 98 9 7 21 10 28 8 7 -3 13 -1 13 5 0 6
7 9 15 6 8 -4 17 -2 20 3 4 6 13 10 21 10 8 0 36 10 62 21 25 12 51 22 57 23
5 1 19 7 30 14 26 15 34 15 51 -2z m266 -40 c91 -95 109 -116 103 -126 -14
-22 -32 -6 -83 70 -54 83 -59 97 -20 56z m148 -83 c-1 -11 -40 37 -40 49 0 6
9 -1 20 -15 11 -14 20 -29 20 -34z m-160 -14 c33 -33 60 -64 60 -67 0 -4 -8
-12 -18 -19 -15 -9 -21 -7 -32 11 -8 11 -14 23 -15 26 0 3 -10 19 -21 35 -27
39 -46 75 -39 75 3 0 32 -27 65 -61z m-70 -159 c0 -12 -38 -23 -50 -15 -5 3
-10 13 -10 21 0 8 -4 14 -10 14 -5 0 -16 15 -25 34 -9 19 -25 42 -36 52 -10 9
-19 23 -19 31 0 7 -4 13 -10 13 -5 0 -10 7 -10 15 0 8 -4 15 -9 15 -5 0 -12 8
-15 18 -4 9 39 -30 94 -87 55 -57 100 -107 100 -111z m-290 190 c0 -5 7 -10
15 -10 8 0 15 -4 15 -8 0 -4 43 -50 95 -102 86 -86 111 -125 78 -125 -6 0 -15
-3 -19 -7 -15 -15 -33 -7 -47 20 -7 15 -19 26 -26 24 -7 -1 -10 2 -7 7 6 9
-13 47 -61 121 -23 36 -28 43 -52 73 -9 11 -10 17 -2 17 6 0 11 -4 11 -10z
m-210 -37 c10 -18 23 -40 30 -48 7 -8 9 -15 5 -15 -4 0 6 -17 22 -37 16 -21
35 -50 42 -65 8 -15 23 -37 33 -48 10 -11 14 -20 8 -20 -5 0 -10 -5 -10 -11 0
-5 5 -7 12 -3 7 4 8 3 4 -5 -4 -6 0 -19 10 -28 16 -16 15 -18 -16 -31 -18 -7
-36 -12 -40 -10 -11 4 -202 289 -197 294 2 2 52 -44 110 -103 59 -58 110 -103
113 -100 3 3 -48 60 -114 126 -66 67 -119 121 -118 122 0 0 12 3 25 5 14 2 27
7 30 10 12 12 35 -3 51 -33z m-75 -96 c33 -50 61 -97 63 -104 2 -7 7 -13 12
-13 4 0 11 -7 14 -16 6 -15 4 -15 -11 -3 -26 21 -53 48 -53 54 0 9 -118 124
-123 119 -7 -8 4 -44 14 -44 5 0 9 -5 9 -11 0 -6 9 -23 20 -39 11 -15 17 -30
13 -34 -3 -3 -2 -6 4 -6 6 0 16 -13 23 -30 7 -16 16 -30 19 -30 4 0 14 -16 21
-35 15 -39 35 -61 44 -47 3 4 -6 20 -19 34 -13 14 -21 28 -18 31 3 4 -1 13 -8
21 -30 33 -39 46 -39 54 0 5 -9 21 -21 36 -42 54 -1 23 63 -46 79 -87 112
-128 106 -133 -2 -2 -21 -6 -42 -8 -32 -4 -43 0 -66 24 -15 16 -32 29 -38 29
-6 0 -14 9 -17 20 -4 11 -9 18 -13 16 -4 -2 -18 11 -32 30 -14 18 -31 34 -38
34 -7 0 -10 5 -7 10 4 6 2 9 -2 8 -5 -2 -21 11 -36 27 -14 17 -27 26 -27 22 0
-4 49 -58 110 -119 60 -61 107 -114 105 -119 -3 -4 -24 -10 -48 -14 -23 -4
-51 -9 -62 -11 -11 -2 -40 -6 -65 -9 -25 -3 -52 -7 -60 -10 -8 -2 -51 -6 -95
-10 -44 -4 -100 -9 -125 -11 -119 -13 -122 -13 -147 14 -13 14 -21 27 -19 29
2 2 -8 17 -22 32 -15 16 -34 37 -42 47 -19 24 -140 219 -140 226 0 3 39 6 88
7 102 3 180 7 277 16 39 4 86 8 106 9 19 2 40 5 45 8 9 5 59 16 114 24 41 6
72 13 77 18 12 12 32 -11 88 -97z m305 -127 c0 -9 31 -23 37 -16 3 2 -27 52
-66 110 -39 58 -69 106 -66 106 8 0 135 -131 135 -140 0 -5 8 -11 18 -14 9 -3
25 -20 34 -36 17 -31 17 -31 -10 -41 -15 -6 -35 -12 -46 -15 -10 -2 -24 -8
-31 -14 -16 -13 -59 5 -50 21 4 5 2 9 -3 9 -5 0 -14 11 -20 25 -7 14 -17 31
-22 38 -21 24 -90 138 -90 147 0 6 -4 10 -10 10 -5 0 -10 6 -10 13 0 6 45 -35
100 -92 55 -57 100 -107 100 -111z m-705 -251 c2 -3 -8 -5 -25 -5 -16 0 -27 3
-25 6 5 8 42 6 50 -1z m-399 -40 c2 -18 1 -30 -2 -26 -4 3 -8 21 -10 38 -2 18
-1 30 2 26 4 -3 8 -21 10 -38z m298 29 c-3 -4 -14 -8 -25 -8 -11 0 -18 4 -14
9 3 6 14 9 25 8 10 -1 16 -5 14 -9z m-150 -48 c10 -13 9 -13 -6 -1 -10 7 -18
21 -17 30 0 13 1 14 6 1 3 -8 11 -22 17 -30z m-104 -10 c0 -5 -5 -10 -11 -10
-5 0 -7 5 -4 10 3 6 8 10 11 10 2 0 4 -4 4 -10z m16 -57 c4 -16 11 -31 17 -34
5 -4 5 -9 -2 -13 -6 -4 -13 5 -17 21 -4 15 -11 34 -17 41 -6 8 -6 12 2 12 6 0
14 -12 17 -27z m-31 -23 c3 -5 1 -10 -4 -10 -6 0 -11 5 -11 10 0 6 2 10 4 10
3 0 8 -4 11 -10z m25 -60 c18 -42 9 -45 -11 -4 -9 19 -13 34 -9 34 4 0 13 -14
20 -30z m37 8 c-3 -8 -6 -5 -6 6 -1 11 2 17 5 13 3 -3 4 -12 1 -19z m96 -52
c8 -19 7 -19 -13 -1 -11 10 -20 24 -20 32 0 12 2 12 13 1 7 -7 16 -22 20 -32z
m-79 18 c3 -8 2 -12 -4 -9 -6 3 -10 10 -10 16 0 14 7 11 14 -7z m12 -216 c13
-27 24 -51 23 -54 0 -4 3 -10 8 -13 12 -8 65 -134 54 -126 -6 3 -46 78 -91
167 -45 89 -88 171 -96 182 -8 11 -14 31 -14 44 0 23 24 -18 116 -200z m46
164 c6 -15 12 -29 13 -32 1 -3 16 -36 33 -74 37 -80 41 -95 11 -46 -29 47 -90
192 -77 184 5 -3 14 -18 20 -32z m5 -109 c9 -21 20 -40 23 -43 11 -9 20 -40
11 -40 -8 0 -19 21 -47 88 -20 45 -9 40 13 -5z m72 5 c10 -30 9 -31 -4 -14 -8
11 -15 26 -15 33 0 22 8 14 19 -19z m-167 -75 c87 -149 128 -231 128 -252 0
-12 4 -20 8 -17 10 6 57 -72 49 -80 -13 -14 -196 303 -237 411 -17 45 5 18 52
-62z m118 -48 c-1 -5 -8 2 -18 18 -9 15 -20 27 -25 27 -4 0 -6 4 -3 9 3 5 -1
14 -9 21 -8 7 -15 20 -15 29 0 9 16 -9 35 -39 19 -30 35 -59 35 -65z m-116
-115 c10 -13 9 -13 -6 -1 -10 7 -18 21 -17 30 0 13 1 14 6 1 3 -8 11 -22 17
-30z m170 -17 c9 -18 13 -33 9 -33 -9 0 -33 48 -33 64 0 13 4 7 24 -31z m-184
-4 c0 -5 12 -28 27 -52 14 -23 26 -43 25 -45 -1 -1 14 -25 33 -52 19 -27 35
-54 35 -59 0 -5 4 -11 10 -13 5 -1 10 -17 12 -35 1 -17 6 -30 10 -27 8 5 48
-65 59 -103 6 -19 4 -20 -10 -12 -26 17 -73 93 -150 242 -65 126 -87 188 -61
172 6 -3 10 -11 10 -16z m50 6 c7 -9 8 -15 2 -15 -5 0 -12 7 -16 15 -3 8 -4
15 -2 15 2 0 9 -7 16 -15z m40 -68 c14 -23 32 -58 40 -78 8 -20 20 -43 26 -50
7 -8 19 -32 28 -54 l16 -40 -20 24 c-11 13 -20 29 -20 36 0 7 -9 24 -21 39
-11 14 -17 26 -12 26 4 0 3 4 -3 8 -13 9 -74 132 -65 132 3 0 17 -19 31 -43z
m-76 -113 c42 -44 98 -142 204 -359 3 -5 -9 3 -26 19 -17 16 -60 88 -96 160
-36 72 -75 145 -86 161 -11 17 -20 37 -19 45 0 13 1 13 6 0 4 -8 11 -20 17
-26z m191 -33 c3 -5 0 -13 -6 -17 -7 -4 -9 -3 -5 4 3 5 0 13 -6 15 -9 4 -10 6
-1 6 6 1 14 -3 18 -8z m-200 -51 c-3 -5 -2 -10 4 -10 5 0 12 6 15 13 3 6 3 2
1 -9 -4 -14 6 -41 25 -73 16 -29 30 -56 30 -61 0 -6 4 -10 9 -10 5 0 11 -8 14
-17 3 -10 13 -29 21 -43 35 -59 81 -170 70 -170 -6 0 -44 39 -44 45 0 3 -6 18
-14 33 -75 142 -96 177 -107 174 -10 -2 -10 0 0 12 7 9 8 16 2 20 -28 17 -53
106 -30 106 5 0 7 -4 4 -10z m35 -192 c0 -4 13 -26 29 -50 67 -101 153 -272
138 -277 -6 -2 -13 1 -15 8 -2 6 -9 17 -15 24 -7 7 -18 23 -25 36 -29 50 -55
98 -74 136 -11 22 -27 51 -35 65 -46 81 -63 139 -27 95 13 -16 24 -33 24 -37z
m170 11 c17 -30 6 -34 -14 -4 -9 14 -12 25 -7 25 6 0 15 -9 21 -21z m-190
-100 c0 -5 5 -7 12 -3 7 4 8 3 4 -4 -4 -6 17 -48 45 -94 90 -143 156 -288 131
-288 -11 0 -76 107 -137 225 -32 61 -62 114 -66 120 -12 13 -11 55 1 55 6 0
10 -5 10 -11z m200 -59 c0 -8 -8 -1 -19 15 -10 17 -16 34 -13 39 6 10 31 -33
32 -54z m-483 -43 c4 -4 -21 -7 -56 -6 -34 1 -57 5 -51 9 14 9 97 6 107 -3z
m283 -27 c0 -6 16 -36 36 -67 50 -78 115 -203 106 -203 -4 0 -1 -4 6 -9 8 -5
12 -17 10 -27 -2 -14 -11 -6 -32 31 -16 28 -32 52 -35 55 -3 3 -26 46 -51 95
-25 50 -48 92 -52 93 -12 5 -10 42 2 42 6 0 10 -5 10 -10z m200 -31 c0 -18
-18 -9 -23 12 -4 16 -3 18 9 8 8 -6 14 -15 14 -20z m-1603 -5 c-3 -4 -14 -3
-24 0 -15 6 -15 8 -3 16 16 10 39 -4 27 -16z m200 -65 c83 -4 52 -13 -47 -14
-61 -1 -90 3 -90 10 0 20 10 23 48 14 20 -4 61 -9 89 -10z m1278 -129 c21 -26
64 -110 56 -110 -4 0 -20 22 -36 50 -17 27 -33 50 -37 50 -5 0 -8 8 -9 18 0
11 -2 12 -6 4 -3 -7 3 -22 13 -33 9 -10 14 -19 10 -19 -4 0 -1 -7 6 -15 29
-32 39 -45 33 -45 -3 0 0 -6 7 -14 7 -8 17 -11 22 -8 5 3 6 0 2 -7 -4 -6 2
-23 13 -37 11 -15 18 -30 15 -35 -3 -5 2 -6 12 -2 13 5 15 2 8 -13 -5 -10 -9
-76 -9 -146 0 -114 -2 -128 -17 -128 -21 0 -33 17 -16 23 17 5 -8 37 -30 37
-17 0 -41 28 -42 49 0 9 6 7 19 -7 22 -26 31 -28 31 -7 0 18 -18 51 -42 79
-31 34 -100 157 -93 164 6 7 10 8 36 11 16 2 0 21 -27 31 -23 9 -23 12 -20
117 4 150 10 158 53 75 20 -37 41 -74 48 -82z m-1090 110 c-3 -5 -12 -10 -18
-10 -7 0 -6 4 3 10 19 12 23 12 15 0z m1204 -30 c11 -24 11 -24 -3 -6 -9 11
-16 24 -16 30 0 12 5 7 19 -24z m-544 -8 c3 -8 0 -10 -7 -6 -6 4 -26 7 -45 6
-18 -1 -33 2 -33 7 0 13 79 7 85 -7z m30 8 c3 -5 2 -10 -4 -10 -5 0 -13 5 -16
10 -3 6 -2 10 4 10 5 0 13 -4 16 -10z m-1105 -30 c0 -5 -7 -7 -15 -4 -8 4 -12
10 -9 15 6 11 24 2 24 -11z m244 -39 c4 -5 -3 -7 -14 -4 -23 6 -26 13 -6 13 8
0 17 -4 20 -9z m-74 -5 c0 -2 -7 -7 -16 -10 -8 -3 -12 -2 -9 4 6 10 25 14 25
6z m240 -6 c0 -5 -17 -11 -37 -11 -21 -1 -48 -3 -61 -4 -12 -1 -25 1 -27 5 -3
5 2 7 10 6 13 -2 36 1 108 13 4 0 7 -3 7 -9z m55 -8 c-3 -3 -11 0 -18 7 -9 10
-8 11 6 5 10 -3 15 -9 12 -12z m65 -22 c0 -7 -97 -6 -105 1 -2 3 20 5 50 6 30
0 55 -3 55 -7z m84 1 c-8 -9 -64 -10 -69 -1 -2 4 14 7 35 7 22 0 38 -3 34 -6z
m-389 -11 c4 -6 -6 -10 -22 -9 -25 0 -26 1 -8 9 11 5 21 9 22 9 1 1 5 -3 8 -9z
m1400 -28 c-8 -8 -25 10 -19 20 4 6 9 5 15 -3 4 -7 6 -15 4 -17z m-840 -10
c-3 -3 -11 0 -18 7 -9 10 -8 11 6 5 10 -3 15 -9 12 -12z m57 4 c7 4 8 2 4 -5
-9 -13 -26 -5 -25 12 0 9 2 8 6 -1 2 -6 10 -9 15 -6z m151 -1 c20 1 37 -1 37
-5 0 -15 -29 -19 -64 -9 -20 6 -41 7 -46 4 -6 -3 -10 -1 -10 6 0 8 -4 8 -15
-1 -13 -11 -18 -11 -28 0 -10 10 -9 12 5 7 10 -3 20 -2 23 3 3 5 18 5 33 1 15
-4 44 -7 65 -6z m276 0 c1 -12 -26 -13 -56 -3 -13 4 -23 4 -23 0 0 -8 -68 -8
-77 1 -3 4 -11 4 -16 0 -17 -10 -57 -10 -57 0 0 5 11 7 25 5 14 -3 27 -3 29 1
7 10 174 7 175 -4z m-1003 -63 c-4 -3 -14 2 -24 12 -16 18 -16 18 6 6 13 -6
21 -14 18 -18z m59 8 c3 -6 -1 -7 -9 -4 -18 7 -21 14 -7 14 6 0 13 -4 16 -10z
m99 -25 c6 -11 22 -36 35 -55 l25 -35 -25 20 c-13 11 -28 26 -33 34 -4 7 -17
20 -27 29 -10 9 -19 20 -19 25 0 16 33 2 44 -18z m147 -26 l20 -41 -34 34
c-19 18 -32 36 -30 41 9 16 24 5 44 -34z m65 -1 l16 -33 -31 29 c-35 34 -36
36 -16 36 8 0 22 -15 31 -32z m42 16 c6 3 9 0 8 -8 0 -7 58 -75 129 -151 72
-75 131 -141 133 -146 2 -4 -7 -6 -19 -4 -26 5 -154 138 -241 251 -12 16 -28
35 -35 42 -18 19 -17 38 2 22 8 -6 18 -9 23 -6z m105 -14 c18 -29 37 -40 37
-20 0 6 -4 10 -9 10 -5 0 -11 7 -15 15 -3 8 -3 15 0 15 8 0 314 -314 314 -322
0 -23 -56 24 -115 95 -21 26 -33 33 -41 26 -8 -7 -15 -6 -20 2 -4 8 -3 9 4 5
7 -4 12 -3 12 2 0 12 -129 150 -130 138 0 -6 10 -21 23 -35 12 -14 2 -8 -23
14 -59 52 -86 85 -68 85 8 0 22 -13 31 -30z m115 -24 c17 -24 83 -95 146 -159
62 -64 111 -118 109 -121 -2 -2 -27 22 -56 53 -29 31 -58 60 -65 65 -8 4 -24
19 -35 33 -12 14 -54 57 -94 96 -40 38 -70 74 -67 78 8 14 28 0 62 -45z m92
39 c7 -8 9 -15 6 -15 -9 0 33 -60 54 -78 13 -11 13 -12 0 -6 -21 11 -110 97
-110 106 0 14 37 8 50 -7z m130 -10 c-7 -9 -1 -26 25 -63 19 -28 29 -49 21
-46 -7 3 -19 15 -26 27 -6 12 -31 38 -55 57 -24 19 -44 37 -44 40 -1 3 19 4
44 2 36 -3 43 -7 35 -17z m206 -1 c12 -48 1 -56 -35 -25 -19 17 -38 28 -42 25
-4 -2 -9 2 -12 9 -3 8 9 12 39 13 38 1 45 -2 50 -22z m-756 -114 c36 -41 86
-96 112 -124 26 -27 46 -52 43 -54 -4 -4 -95 84 -95 92 0 2 -19 23 -42 47 -69
72 -138 152 -138 161 0 10 33 -23 120 -122z m-24 88 c22 -24 69 -77 104 -118
36 -41 76 -86 90 -100 34 -34 54 -60 45 -60 -14 0 -182 178 -245 260 -19 25
-39 48 -45 52 -7 5 -7 8 1 8 5 0 28 -19 50 -42z m454 -43 c47 -47 116 -117
154 -156 71 -70 89 -101 56 -92 -22 6 -286 277 -315 324 -4 5 0 9 7 9 7 0 51
-38 98 -85z m210 74 c0 -5 5 -7 12 -3 6 4 9 3 6 -2 -6 -10 19 -50 70 -113 19
-23 31 -41 28 -41 -3 0 -29 22 -58 49 -29 27 -71 66 -92 85 l-40 36 37 0 c20
0 37 -5 37 -11z m-827 -66 c34 -37 81 -87 105 -112 42 -44 47 -51 37 -51 -11
0 -195 194 -195 206 0 7 -6 15 -12 17 -7 3 -9 6 -5 6 4 1 36 -29 70 -66z m797
-82 c83 -83 150 -154 150 -159 0 -24 -47 1 -103 55 -114 111 -217 227 -217
244 0 24 31 -2 170 -140z m-590 -86 c0 -13 -126 116 -174 180 -22 28 9 1 67
-60 59 -60 107 -114 107 -120z m-118 1 c-6 -10 -201 193 -202 209 0 6 47 -37
104 -95 57 -58 101 -109 98 -114z m476 11 c37 -38 69 -74 71 -80 5 -17 -236
221 -261 258 -21 30 59 -46 190 -178z m226 181 c217 -211 273 -268 269 -272
-17 -16 -65 16 -147 100 -52 52 -96 91 -98 87 -3 -4 -3 -2 -1 5 1 7 -7 23 -20
36 -51 53 -54 94 -3 44z m161 -51 c69 -70 149 -176 140 -185 -6 -6 -126 119
-185 194 -29 35 -46 64 -39 64 7 0 45 -33 84 -73z m-610 -66 c-5 -5 -95 91
-95 102 0 5 22 -16 49 -45 27 -29 48 -55 46 -57z m649 73 c4 -10 1 -14 -6 -12
-15 5 -23 28 -10 28 5 0 13 -7 16 -16z m-493 -41 c13 -16 12 -17 -3 -4 -17 13
-22 21 -14 21 2 0 10 -8 17 -17z m-210 -10 c13 -16 12 -17 -3 -4 -17 13 -22
21 -14 21 2 0 10 -8 17 -17z m184 -161 c-5 -5 -125 117 -125 126 0 4 29 -22
65 -58 35 -35 62 -66 60 -68z m-329 21 c-6 -6 -46 20 -46 30 0 4 11 0 25 -9
14 -9 24 -19 21 -21z m45 10 c13 -16 12 -17 -3 -4 -17 13 -22 21 -14 21 2 0
10 -8 17 -17z m65 -8 c16 -14 24 -25 18 -25 -10 0 -54 37 -54 45 0 9 7 5 36
-20z m1054 -99 c0 -3 -4 -8 -10 -11 -5 -3 -10 -1 -10 4 0 6 5 11 10 11 6 0 10
-2 10 -4z"/>
<path d="M3780 6326 c0 -2 9 -6 20 -9 11 -3 18 -1 14 4 -5 9 -34 13 -34 5z"/>
<path d="M3111 5467 c-8 -10 -12 -32 -9 -57 3 -33 0 -40 -14 -40 -12 0 -18 -8
-18 -21 0 -16 3 -19 13 -11 21 18 32 -9 32 -83 0 -38 3 -87 6 -107 4 -23 2
-38 -4 -38 -6 0 -6 -5 0 -12 5 -7 10 -30 12 -50 2 -29 -1 -38 -13 -38 -13 0
-16 -11 -14 -62 1 -39 7 -70 16 -80 14 -16 13 -18 -2 -18 -11 0 -14 -4 -9 -12
4 -7 8 -29 8 -48 1 -20 4 -40 7 -45 11 -20 2 -146 -11 -154 -7 -5 -12 -11 -12
-15 1 -3 1 -33 1 -66 0 -43 -4 -59 -12 -57 -7 1 -13 -5 -13 -13 0 -8 5 -14 11
-13 7 1 10 -6 7 -17 -5 -20 5 -23 80 -23 9 0 17 -2 18 -6 8 -65 19 -102 30
-95 6 3 8 12 5 20 -3 7 2 20 10 28 8 9 14 23 12 33 -2 13 5 17 37 19 22 0 46
-3 53 -9 8 -6 12 -6 12 3 0 6 6 10 13 7 6 -2 26 0 42 5 41 11 108 20 180 23
33 2 60 4 60 5 0 5 113 22 140 22 10 -1 26 4 34 11 12 9 13 9 7 0 -15 -26 31
-13 59 17 16 17 34 30 40 30 6 0 21 7 33 16 18 13 21 19 11 30 -9 11 -8 18 4
32 8 9 24 37 34 62 48 108 57 191 33 291 -6 25 -12 70 -13 100 -2 41 -6 53
-17 52 -10 -2 -27 23 -49 67 -18 38 -41 72 -51 75 -21 7 -120 102 -120 115 0
6 -4 10 -10 10 -5 0 -10 -7 -10 -15 0 -11 -4 -13 -17 -5 -10 5 -40 19 -68 31
-45 20 -63 25 -117 33 -10 1 -26 10 -36 19 -20 19 -37 23 -27 7 3 -5 -1 -10
-9 -10 -8 0 -18 9 -21 20 -3 11 -10 20 -15 20 -4 0 -10 -9 -13 -20 -4 -17 -14
-20 -66 -20 -34 0 -61 4 -61 9 0 12 -41 11 -57 -2 -9 -6 -13 -6 -13 2 0 7 -8
8 -22 2 -20 -8 -33 -8 -85 -2 -6 0 -13 15 -15 33 -3 28 -4 30 -17 15z m482
-187 c4 0 5 5 1 12 -4 7 -3 8 5 4 9 -6 9 -11 0 -23 -14 -16 -22 -7 -32 37 -6
23 -5 22 5 -2 7 -16 16 -28 21 -28z m59 20 c10 -10 13 -22 9 -25 -16 -9 0 -44
17 -38 13 4 14 3 3 -5 -18 -13 -5 -53 15 -45 8 3 14 -1 15 -11 2 -24 4 -30 11
-41 12 -20 48 -129 43 -133 -7 -7 -35 64 -35 88 0 12 -4 19 -8 16 -5 -3 -9 0
-10 7 0 7 -3 21 -6 32 -2 11 -5 24 -5 28 -1 5 -5 6 -11 2 -5 -3 -6 -13 -3 -23
4 -13 3 -14 -6 -6 -6 6 -13 20 -16 32 -2 12 -6 25 -8 30 -12 18 -35 112 -29
112 4 0 15 -9 24 -20z m96 -48 c0 -10 3 -26 6 -37 8 -20 7 -20 -8 -1 -9 11
-16 28 -16 38 0 10 -5 18 -11 18 -5 0 -7 -4 -4 -10 9 -15 -4 -12 -21 4 -12 13
-12 16 3 25 21 11 52 -11 51 -37z m-243 8 c3 -5 1 -10 -4 -10 -6 0 -11 5 -11
10 0 6 2 10 4 10 3 0 8 -4 11 -10z m320 -78 c1 -18 -2 -32 -6 -32 -8 0 -23 31
-20 43 0 4 -4 18 -10 30 -12 21 -11 21 11 6 16 -10 24 -26 25 -47z m-58 -14
c2 -18 0 -20 -7 -8 -12 18 -13 30 -2 30 4 0 9 -10 9 -22z m81 -10 c-2 -13 2
-23 7 -23 6 0 9 5 7 12 -2 7 2 13 7 13 5 0 7 -10 4 -22 -3 -13 -6 -32 -7 -44
0 -11 -6 -21 -12 -21 -6 0 -9 10 -6 22 2 13 -2 26 -9 30 -8 6 -11 4 -7 -6 3
-8 -1 -24 -9 -34 -13 -19 -14 -18 -8 10 4 17 9 37 12 45 6 14 9 23 12 35 4 16
11 1 9 -17z m-41 -37 c0 -11 -5 -18 -9 -15 -4 3 -5 11 -1 19 7 21 12 19 10 -4z
m97 -12 c2 -13 5 -24 6 -24 1 0 3 -7 5 -15 29 -116 39 -148 55 -185 7 -16 12
-36 11 -42 -1 -7 2 -13 7 -13 5 0 9 -7 9 -15 0 -34 -16 -11 -41 58 -27 77 -46
147 -50 183 -1 13 -8 29 -14 37 -7 8 -9 22 -6 31 8 21 12 17 18 -15z m-223
-42 c-10 -9 -11 -8 -5 6 3 10 9 15 12 12 3 -3 0 -11 -7 -18z m16 -29 c-3 -8
-6 -5 -6 6 -1 11 2 17 5 13 3 -3 4 -12 1 -19z m180 7 c0 -8 -4 -12 -9 -9 -5 3
-6 10 -3 15 9 13 12 11 12 -6z m103 -84 c12 -39 20 -76 17 -83 -4 -8 -6 -7 -6
5 -1 9 -5 17 -10 17 -5 0 -11 12 -14 28 -3 15 -10 44 -15 65 -17 65 5 40 28
-32z m-374 47 c5 -3 25 -9 44 -12 68 -11 82 -15 113 -34 18 -10 37 -28 43 -40
6 -12 14 -19 17 -15 4 3 7 1 7 -6 0 -7 5 -9 10 -6 6 3 10 1 10 -5 0 -6 4 -9 9
-5 13 8 78 -56 91 -90 6 -16 9 -34 6 -42 -3 -7 -1 -13 4 -13 8 0 7 -35 -2 -81
-5 -21 -37 -70 -57 -87 -30 -25 -138 -73 -170 -75 -17 -1 -31 -4 -31 -7 0 -3
-24 -6 -53 -7 -36 -1 -58 4 -71 15 -18 16 -18 16 -11 -7 7 -23 6 -24 -26 -17
-19 5 -38 7 -44 6 -5 -1 -67 -4 -137 -6 -144 -4 -133 -11 -144 87 -6 47 -8
213 -4 319 1 19 0 53 -1 75 -3 34 0 40 16 40 11 1 25 3 30 6 6 3 37 6 70 8 33
2 61 4 63 5 5 5 209 -1 218 -6z m282 -24 c-3 -14 -5 -12 -10 9 -3 19 -2 25 4
19 6 -6 8 -18 6 -28z m-744 -419 c19 -116 16 -137 -14 -100 -14 17 -16 57 -5
106 8 36 12 34 19 -6z"/>
<path d="M3177 3173 c-10 -9 -9 -23 1 -23 5 0 9 7 9 15 0 17 -1 18 -10 8z"/>
<path d="M3185 2751 c0 -55 10 -59 12 -5 1 24 -1 44 -5 44 -4 0 -7 -18 -7 -39z"/>
<path d="M3185 2680 c3 -5 8 -10 11 -10 2 0 4 5 4 10 0 6 -5 10 -11 10 -5 0
-7 -4 -4 -10z"/>
<path d="M3185 2650 c3 -5 8 -10 11 -10 2 0 4 5 4 10 0 6 -5 10 -11 10 -5 0
-7 -4 -4 -10z"/>
<path d="M3183 2595 c0 -8 4 -15 9 -15 4 0 8 7 8 15 0 8 -4 15 -8 15 -5 0 -9
-7 -9 -15z"/>
<path d="M3185 2548 c1 -13 3 -31 4 -41 0 -10 5 -16 11 -12 5 3 6 15 1 28 -4
12 -6 28 -4 35 3 6 0 12 -5 12 -5 0 -8 -10 -7 -22z"/>
<path d="M3187 2463 c3 -7 8 -13 12 -13 4 0 8 6 8 13 0 8 -6 14 -13 14 -7 0
-10 -6 -7 -14z"/>
<path d="M3195 2430 c-3 -5 -1 -10 4 -10 6 0 11 5 11 10 0 6 -2 10 -4 10 -3 0
-8 -4 -11 -10z"/>
<path d="M2770 2405 c-16 -19 -1 -19 24 0 16 12 17 15 4 15 -8 0 -21 -7 -28
-15z"/>
<path d="M3197 2343 c2 -37 6 -70 10 -74 5 -5 7 25 5 66 -2 41 -7 75 -11 75
-4 0 -5 -30 -4 -67z"/>
<path d="M2726 2378 c3 -4 9 -8 15 -8 5 0 9 4 9 8 0 5 -7 9 -15 9 -8 0 -12 -4
-9 -9z"/>
<path d="M2620 2350 c-18 -12 -2 -12 25 0 13 6 15 9 5 9 -8 0 -22 -4 -30 -9z"/>
<path d="M2530 2325 c0 -8 8 -11 20 -8 11 3 20 7 20 8 0 1 -9 5 -20 8 -12 3
-20 0 -20 -8z"/>
<path d="M2475 2320 c-3 -5 -1 -10 4 -10 6 0 11 5 11 10 0 6 -2 10 -4 10 -3 0
-8 -4 -11 -10z"/>
<path d="M2370 2290 c-9 -6 -10 -10 -3 -10 6 0 15 5 18 10 8 12 4 12 -15 0z"/>
<path d="M3195 2240 c3 -5 8 -10 11 -10 2 0 4 5 4 10 0 6 -5 10 -11 10 -5 0
-7 -4 -4 -10z"/>
<path d="M2250 2221 c0 -8 50 -34 56 -29 1 2 -11 11 -27 20 -16 9 -29 14 -29
9z"/>
<path d="M3211 2204 c0 -11 3 -14 6 -6 3 7 2 16 -1 19 -3 4 -6 -2 -5 -13z"/>
<path d="M2350 2180 c0 -5 5 -10 10 -10 6 0 10 5 10 10 0 6 -4 10 -10 10 -5 0
-10 -4 -10 -10z"/>
<path d="M2400 2169 c30 -14 90 -18 90 -7 0 4 -15 8 -32 8 -18 0 -44 3 -58 5
l-25 6 25 -12z"/>
<path d="M3210 2165 c0 -8 2 -15 4 -15 2 0 6 7 10 15 3 8 1 15 -4 15 -6 0 -10
-7 -10 -15z"/>
<path d="M2500 2160 c0 -5 6 -10 13 -11 6 -1 24 -2 40 -3 15 -2 27 1 27 5 0 5
-10 7 -22 5 -13 -2 -31 1 -40 6 -12 5 -18 5 -18 -2z"/>
<path d="M2590 2147 c0 -4 41 -6 90 -4 50 2 93 0 96 -5 3 -4 -13 -8 -35 -8
-23 0 -41 -4 -41 -8 0 -4 -9 -8 -20 -8 -11 0 -20 4 -20 8 0 4 -10 4 -22 0 -13
-5 -47 -8 -75 -7 -40 1 -53 -2 -53 -13 0 -9 6 -12 18 -7 9 3 55 8 102 11 132
6 221 12 270 18 25 3 69 8 98 12 87 9 58 22 -48 20 -93 -1 -105 -5 -101 -29 1
-5 -3 -6 -8 -2 -6 3 -8 13 -5 23 5 16 5 16 -6 0 -11 -19 -46 -26 -35 -8 4 6
12 7 18 4 7 -4 8 -3 4 2 -10 10 -227 12 -227 1z"/>
<path d="M3216 2127 c3 -10 9 -15 12 -12 3 3 0 11 -7 18 -10 9 -11 8 -5 -6z"/>
<path d="M2385 2100 l-50 -7 63 -1 c40 -1 61 2 57 8 -3 6 -9 9 -13 8 -4 0 -29
-4 -57 -8z"/>
<path d="M2470 2102 c0 -5 7 -9 15 -9 8 0 12 4 9 9 -3 4 -9 8 -15 8 -5 0 -9
-4 -9 -8z"/>
<path d="M2170 2080 c0 -7 46 -7 54 0 2 3 -9 6 -25 6 -16 1 -29 -2 -29 -6z"/>
<path d="M2095 2070 c-4 -6 6 -10 24 -10 39 0 48 15 11 18 -16 1 -31 -2 -35
-8z"/>
<path d="M2100 2039 c0 -5 5 -7 10 -4 6 3 10 8 10 11 0 2 -4 4 -10 4 -5 0 -10
-5 -10 -11z"/>
<path d="M2130 2030 c0 -9 64 -24 98 -23 12 0 22 -3 22 -7 0 -5 7 -7 16 -6 9
1 36 -1 60 -4 29 -5 44 -3 44 4 0 6 5 4 10 -4 6 -10 10 -11 10 -2 0 6 5 12 11
12 5 0 8 -3 6 -7 -3 -5 10 -9 29 -9 25 -1 34 3 33 15 0 10 -2 12 -6 3 -2 -6
-10 -9 -16 -5 -6 4 -47 8 -92 10 -45 1 -114 9 -153 16 -40 8 -72 11 -72 7z"/>
<path d="M2705 2000 c-11 -18 43 -25 61 -8 3 4 -9 4 -26 2 -21 -4 -30 -2 -25
5 3 6 4 11 1 11 -3 0 -8 -5 -11 -10z"/>
<path d="M2800 1994 c-15 -8 -19 -14 -9 -14 8 0 20 5 27 12 8 8 12 8 12 1 0
-6 14 -10 30 -9 17 0 30 4 30 8 0 4 -10 6 -22 4 -13 -2 -27 0 -33 4 -5 4 -21
1 -35 -6z"/>
<path d="M2480 1991 c0 -7 86 -8 93 -1 3 3 -17 6 -44 6 -27 1 -49 -1 -49 -5z"/>
<path d="M2590 1990 c0 -6 7 -10 15 -10 8 0 15 2 15 4 0 2 -7 6 -15 10 -8 3
-15 1 -15 -4z"/>
<path d="M2930 1988 c0 -5 8 -7 18 -4 9 3 24 1 32 -4 11 -7 7 -10 -17 -11 -51
-2 -93 -6 -95 -9 -2 -1 -39 -4 -83 -6 -44 -2 -81 -4 -82 -5 -2 -1 -7 -3 -13
-4 -5 -1 -11 -3 -12 -4 -2 -1 -65 -2 -140 -3 -112 -2 -135 -5 -126 -16 6 -7
14 -9 17 -5 3 5 60 10 126 10 66 1 145 4 175 6 198 16 237 20 253 29 10 5 27
6 37 3 14 -4 20 -2 20 9 0 8 -4 18 -10 21 -5 3 -10 1 -10 -5 0 -6 -5 -8 -12
-4 -18 12 -78 13 -78 2z"/>
<path d="M2643 1983 c9 -2 25 -2 35 0 9 3 1 5 -18 5 -19 0 -27 -2 -17 -5z"/>
<path d="M2365 1929 c-4 -6 -4 -13 -1 -16 3 -4 6 -1 6 7 0 10 4 10 18 -1 15
-13 16 -12 3 4 -16 20 -18 20 -26 6z"/>
<path d="M2114 1838 c-3 -4 16 -8 42 -8 26 0 44 3 41 7 -10 9 -77 11 -83 1z"/>
<path d="M2425 1700 c-3 -6 1 -7 9 -4 18 7 21 14 7 14 -6 0 -13 -4 -16 -10z"/>
<path d="M2836 1702 c-3 -5 1 -9 9 -9 8 0 12 4 9 9 -3 4 -7 8 -9 8 -2 0 -6 -4
-9 -8z"/>
<path d="M2970 1700 c0 -5 5 -10 10 -10 6 0 10 5 10 10 0 6 -4 10 -10 10 -5 0
-10 -4 -10 -10z"/>
<path d="M3005 1699 c-5 -8 32 -14 58 -10 4 0 7 -3 7 -8 0 -4 11 -6 25 -3 14
2 24 9 22 15 -4 14 -105 19 -112 6z"/>
<path d="M3861 3484 c0 -11 3 -14 6 -6 3 7 2 16 -1 19 -3 4 -6 -2 -5 -13z"/>
<path d="M3742 3455 c0 -16 2 -22 5 -12 2 9 2 23 0 30 -3 6 -5 -1 -5 -18z"/>
<path d="M1986 1343 c-6 -14 -5 -15 5 -6 7 7 10 15 7 18 -3 3 -9 -2 -12 -12z"/>
</g>
</svg>
