<svg width="30" height="30" viewBox="0 0 30 30" fill="none" xmlns="http://www.w3.org/2000/svg">
<path d="M14.4385 2.39045C14.6675 1.92486 15.3312 1.92486 15.5602 2.39045L19.1031 9.59471C19.1939 9.77931 19.3697 9.90742 19.5732 9.93728L27.5008 11.1003C28.0126 11.1754 28.2169 11.8041 27.847 12.1656L22.1087 17.7756C21.9619 17.9191 21.895 18.1255 21.9295 18.3278L23.2833 26.2501C23.3706 26.761 22.8338 27.15 22.3754 26.9081L15.2911 23.1686C15.1085 23.0722 14.8902 23.0722 14.7076 23.1686L7.62325 26.9081C7.16487 27.15 6.62813 26.761 6.71543 26.2501L8.06914 18.3278C8.10371 18.1255 8.03675 17.9191 7.88999 17.7756L2.15165 12.1656C1.78183 11.8041 1.98612 11.1754 2.49785 11.1003L10.4255 9.93728C10.629 9.90742 10.8048 9.77931 10.8956 9.59471L14.4385 2.39045Z" fill="#FFC120"/>
</svg>
